# xmcd CD database file
#
# Track frame offsets:
#	150
#	21875
#	38647
#	55220
#
# Disc length: 1022 seconds
#
# Revision: 0
# Processed by: cddbd v1.5PL3 Copyright (c) Steve Scherf et al.
# Submitted via: CDex 1.51
#
DISCID=2903fc04
DTITLE=松本英子 - Squall
DYEAR=1999
DGENRE=JPop
TTITLE0=Squall
TTITLE1=空を見上げて-sha la la-
TTITLE2=やさしい種
TTITLE3=Squall(Orijinaru Karaoke)
EXTD=YEAR: 1999
EXTT0=
EXTT1=
EXTT2=
EXTT3=
PLAYORDER=
